<svg xmlns="http://www.w3.org/2000/svg" xmlns:xlink="http://www.w3.org/1999/xlink" width="60" height="60" viewBox="0 0 60 60">
  <defs>
    <clipPath id="clip-Artboard_3">
      <rect width="60" height="60"/>
    </clipPath>
  </defs>
  <g id="Artboard_3" data-name="Artboard – 3" clip-path="url(#clip-Artboard_3)">
    <rect width="60" height="60" fill="#fff"/>
    <path id="Path_9973" data-name="Path 9973" d="M5.48,0A5.48,5.48,0,1,1,0,5.48,5.48,5.48,0,0,1,5.48,0Z" transform="translate(24.299 19.607)" fill="#ac5959"/>
    <g id="Icon_feather-user" data-name="Icon feather-user" transform="translate(20.461 20.117)">
      <path id="Path_5" data-name="Path 5" d="M25.115,29.668V27.279A4.779,4.779,0,0,0,20.336,22.5H10.779A4.779,4.779,0,0,0,6,27.279v2.389" transform="translate(-6 -8.164)" fill="none" stroke="#000" stroke-linecap="round" stroke-linejoin="round" stroke-width="3"/>
      <path id="Path_6" data-name="Path 6" d="M21.557,9.279A4.779,4.779,0,1,1,16.779,4.5a4.779,4.779,0,0,1,4.779,4.779Z" transform="translate(-7.221 -4.5)" fill="none" stroke="#000" stroke-linecap="round" stroke-linejoin="round" stroke-width="3"/>
    </g>
  </g>
</svg>
