<svg xmlns="http://www.w3.org/2000/svg" xmlns:xlink="http://www.w3.org/1999/xlink" width="60" height="60" viewBox="0 0 60 60">
  <defs>
    <clipPath id="clip-Artboard_30">
      <rect width="60" height="60"/>
    </clipPath>
  </defs>
  <g id="Artboard_30" data-name="Artboard – 30" clip-path="url(#clip-Artboard_30)">
    <rect width="60" height="60" fill="#fff"/>
    <g id="Icon_ionic-ios-arrow-dropdown" data-name="Icon ionic-ios-arrow-dropdown" transform="translate(15.375 15.375)">
      <path id="Path_93" data-name="Path 93" d="M10.378,14.815a1.362,1.362,0,0,0,0,1.92l6.729,6.708a1.356,1.356,0,0,0,1.87.042l6.63-6.609a1.355,1.355,0,1,0-1.912-1.92L18,20.566l-5.7-5.759A1.356,1.356,0,0,0,10.378,14.815Z" transform="translate(-3.375 -3.375)"/>
      <path id="Path_94" data-name="Path 94" d="M3.375,18A14.625,14.625,0,1,0,18,3.375,14.623,14.623,0,0,0,3.375,18ZM26.747,9.253A12.37,12.37,0,1,1,9.253,26.747,12.37,12.37,0,1,1,26.747,9.253Z" transform="translate(-3.375 -3.375)"/>
    </g>
  </g>
</svg>
