<svg xmlns="http://www.w3.org/2000/svg" xmlns:xlink="http://www.w3.org/1999/xlink" width="60" height="60" viewBox="0 0 60 60">
  <defs>
    <clipPath id="clip-Artboard_2">
      <rect width="60" height="60"/>
    </clipPath>
  </defs>
  <g id="Artboard_2" data-name="Artboard – 2" clip-path="url(#clip-Artboard_2)">
    <rect width="60" height="60" fill="#fff"/>
    <ellipse id="Ellipse_131" data-name="Ellipse 131" cx="4.901" cy="4.782" rx="4.901" ry="4.782" transform="matrix(0.999, -0.035, 0.035, 0.999, 32.491, 18.531)" fill="#ac5959"/>
    <path id="Icon_ionic-md-heart-empty" data-name="Icon ionic-md-heart-empty" d="M20.264,4.5a6.89,6.89,0,0,0-5.242,2.458A6.89,6.89,0,0,0,9.781,4.5a6.333,6.333,0,0,0-6.406,6.446c0,4.452,3.959,8.025,9.957,13.535L15.023,26l1.691-1.523c6-5.51,9.957-9.083,9.957-13.535A6.333,6.333,0,0,0,20.264,4.5ZM15.74,22.941l-.235.218-.482.437-.482-.437-.235-.218a71.179,71.179,0,0,1-6.871-6.832c-1.568-1.943-2.262-3.534-2.262-5.163A4.658,4.658,0,0,1,6.5,7.625,4.557,4.557,0,0,1,9.781,6.292a5.136,5.136,0,0,1,3.87,1.82l1.372,1.63,1.372-1.63a5.117,5.117,0,0,1,3.87-1.82,4.58,4.58,0,0,1,3.287,1.333,4.667,4.667,0,0,1,1.327,3.321c0,1.624-.7,3.22-2.262,5.163A71.322,71.322,0,0,1,15.74,22.941Z" transform="translate(14.003 15.807)"/>
  </g>
</svg>
