<svg xmlns="http://www.w3.org/2000/svg" xmlns:xlink="http://www.w3.org/1999/xlink" width="60" height="60" viewBox="0 0 60 60">
  <defs>
    <clipPath id="clip-Artboard_17">
      <rect width="60" height="60"/>
    </clipPath>
  </defs>
  <g id="Artboard_17" data-name="Artboard – 17" clip-path="url(#clip-Artboard_17)">
    <rect width="60" height="60" fill="#fff"/>
    <path id="Icon_ionic-md-heart-empty" data-name="Icon ionic-md-heart-empty" d="M38.5,4.5A14.33,14.33,0,0,0,27.6,9.613,14.33,14.33,0,0,0,16.7,4.5,13.171,13.171,0,0,0,3.375,17.9c0,9.259,8.234,16.689,20.707,28.149L27.6,49.221l3.517-3.168C43.589,34.594,51.823,27.164,51.823,17.9A13.171,13.171,0,0,0,38.5,4.5ZM29.09,42.851l-.489.454-1,.908-1-.908-.489-.454c-5.87-5.392-10.947-10.051-14.29-14.208C8.558,24.6,7.113,21.294,7.113,17.9A9.687,9.687,0,0,1,9.874,11,9.478,9.478,0,0,1,16.7,8.227a10.681,10.681,0,0,1,8.048,3.785L27.6,15.4l2.853-3.389A10.642,10.642,0,0,1,38.5,8.227,9.525,9.525,0,0,1,45.336,11,9.707,9.707,0,0,1,48.1,17.9c0,3.377-1.456,6.7-4.705,10.738C40.037,32.8,34.971,37.459,29.09,42.851Z" transform="translate(2.401 3.139)"/>
  </g>
</svg>
