<svg xmlns="http://www.w3.org/2000/svg" xmlns:xlink="http://www.w3.org/1999/xlink" width="120" height="120" viewBox="0 0 120 120">
  <defs>
    <clipPath id="clip-Artboard_36">
      <rect width="120" height="120"/>
    </clipPath>
  </defs>
  <g id="Artboard_36" data-name="Artboard – 36" clip-path="url(#clip-Artboard_36)">
    <rect width="120" height="120" fill="#fff"/>
    <g id="Ellipse_132" data-name="Ellipse 132" transform="translate(19.5 19.5)" fill="none" stroke="#000" stroke-width="1">
      <circle cx="40.5" cy="40.5" r="40.5" stroke="none"/>
      <circle cx="40.5" cy="40.5" r="40" fill="none"/>
    </g>
    <g id="Group_10771" data-name="Group 10771" transform="translate(-216.874 -127.139)">
      <path id="Path_9992" data-name="Path 9992" d="M373.612,237.233c.243,1.361.944,2.588,1.12,3.99a3.215,3.215,0,0,0,.208,1.893" transform="translate(-90.235 -63.698)" fill="none" stroke="#1a1818" stroke-miterlimit="10" stroke-width="1"/>
      <path id="Path_9993" data-name="Path 9993" d="M384.777,261.911a16.567,16.567,0,0,0-4.766,1.538" transform="translate(-95.512 -84.051)" fill="none" stroke="#1a1818" stroke-miterlimit="10" stroke-width="1"/>
      <path id="Path_9994" data-name="Path 9994" d="M328.923,161.214a37.088,37.088,0,0,1,.669,3.868c0,1.753-.876,3.505-.7,5.258a.517.517,0,0,0,.7.35,1.329,1.329,0,0,0,.351-.7,14.378,14.378,0,0,1,.35-3.856c.175-1.227.7-2.454,1.051-3.856.175-.526.7-.7,1.052-.876A5.21,5.21,0,0,0,335.9,160c1.227,0,2.8,0,3.68,1.052a10.849,10.849,0,0,1,1.227,3.33c.526,3.33,1.052,6.309,1.4,9.639l.526,2.1c0,.526,0,1.052.052,1.655" transform="translate(-53.332)" fill="none" stroke="#1a1818" stroke-miterlimit="10" stroke-width="1"/>
      <path id="Path_9995" data-name="Path 9995" d="M264.342,192.6a2.462,2.462,0,0,0,.992-.98c1.227-3.33,1.4-7.01,3.475-10.068" transform="translate(-0.115 -17.773)" fill="none" stroke="#1a1818" stroke-miterlimit="10" stroke-width="1"/>
      <path id="Path_9996" data-name="Path 9996" d="M264.77,246.05a1.113,1.113,0,0,1-.532-1.235.807.807,0,0,0,.5.026,3.729,3.729,0,0,1,1.994,3.678,2.22,2.22,0,0,1-.783-.712l-.493-.661" transform="translate(0 -69.951)" fill="none" stroke="#1a1818" stroke-miterlimit="10" stroke-width="1"/>
      <path id="Path_9997" data-name="Path 9997" d="M278.455,204.067a3.877,3.877,0,0,0,1.376-2.9,48.009,48.009,0,0,0,.484-5.9,55.773,55.773,0,0,1,.394,6.566,41.925,41.925,0,0,1-.206,4.376c-.15,1.441-.393,2.87-.588,4.306-.43,3.168-.628,6.363-.776,9.557a171.9,171.9,0,0,0,0,18.6c.02.324.1.726.419.8a.9.9,0,0,0,.569-.143c1.179-.552,2.554-.281,3.85-.156a16.019,16.019,0,0,0,4.782-.259c1.023-.212,2.2-.494,3.027.145.221.171.4.4.617.568a3.235,3.235,0,0,0,2.939.089,4.018,4.018,0,0,1,2.976-.2c-.057-.314-.3-.86-.115-1.139a.941.941,0,0,1,.345-.264,1.23,1.23,0,0,1,.817-.113q-.147-6.809-.486-13.612c-.317-6.366-.788-12.85-3.17-18.761a9.677,9.677,0,0,1-.683-2.062,8.346,8.346,0,0,1-.029-1.765l.579-10.587" transform="translate(-11.754 -25.753)" fill="none" stroke="#1a1818" stroke-miterlimit="10" stroke-width="1"/>
      <path id="Path_9998" data-name="Path 9998" d="M358.263,281.472a117.632,117.632,0,0,1,.624,13.844c.036,6.333.069,12.708-1.059,18.94" transform="translate(-77.216 -100.184)" fill="none" stroke="#1a1818" stroke-miterlimit="10" stroke-width="1"/>
      <path id="Path_9999" data-name="Path 9999" d="M347.307,351.908c-.449-7.863-.894-15.809.449-23.569" transform="translate(-68.171 -138.837)" fill="none" stroke="#1a1818" stroke-miterlimit="10" stroke-width="1"/>
      <path id="Path_10000" data-name="Path 10000" d="M304.806,327.66c-.648-6.825.579-13.835.507-20.681-.03-2.868-.236-5.551.654-8.278" transform="translate(-33.331 -114.393)" fill="none" stroke="#1a1818" stroke-miterlimit="10" stroke-width="1"/>
      <path id="Path_10001" data-name="Path 10001" d="M296.378,163.1a1.611,1.611,0,0,1-1.295-.187,5.517,5.517,0,0,0-1.214-.579,3.429,3.429,0,0,0-1.844.259,1.823,1.823,0,0,0-1.31,1.045l-1.309,2.229" transform="translate(-20.787 -1.882)" fill="none" stroke="#1a1818" stroke-miterlimit="10" stroke-width="1"/>
      <path id="Path_10002" data-name="Path 10002" d="M380.485,269.04c-.051.077.018.188.107.213a.449.449,0,0,0,.27-.038l1.269-.463" transform="translate(-95.889 -89.693)" fill="none" stroke="#1a1818" stroke-miterlimit="10" stroke-width="1"/>
      <path id="Path_10003" data-name="Path 10003" d="M401.013,262.321a2.03,2.03,0,0,0,1.366-.768.339.339,0,0,0-.411-.026.9.9,0,0,0,.314.017" transform="translate(-112.834 -83.687)" fill="none" stroke="#1a1818" stroke-miterlimit="10" stroke-width="1"/>
      <path id="Path_10004" data-name="Path 10004" d="M375.27,359.993c-1.907-4.183-1.272-9.013-1.53-13.6a34.049,34.049,0,0,0-1.855-9.324" transform="translate(-88.811 -146.035)" fill="none" stroke="#1a1818" stroke-miterlimit="10" stroke-width="1"/>
    </g>
  </g>
</svg>
