<svg xmlns="http://www.w3.org/2000/svg" xmlns:xlink="http://www.w3.org/1999/xlink" width="60" height="60" viewBox="0 0 60 60">
  <defs>
    <clipPath id="clip-Artboard_10">
      <rect width="60" height="60"/>
    </clipPath>
  </defs>
  <g id="Artboard_10" data-name="Artboard – 10" clip-path="url(#clip-Artboard_10)">
    <rect width="60" height="60" fill="#fff"/>
    <g id="Icon_ionic-ios-arrow-dropright" data-name="Icon ionic-ios-arrow-dropright" transform="translate(56.098 3.901) rotate(90)">
      <path id="Path_53" data-name="Path 53" d="M15.037,10.6a2.117,2.117,0,0,1,2.982,0L28.441,21.052a2.106,2.106,0,0,1,.066,2.906L18.238,34.26a2.105,2.105,0,1,1-2.982-2.972l8.729-8.86-8.947-8.86A2.084,2.084,0,0,1,15.037,10.6Z" transform="translate(6.113 3.659)"/>
      <path id="Path_54" data-name="Path 54" d="M3.375,26.1A22.723,22.723,0,1,0,26.1,3.375,22.72,22.72,0,0,0,3.375,26.1Zm3.5,0a19.22,19.22,0,0,1,32.818-13.59A19.22,19.22,0,1,1,12.508,39.689,19.062,19.062,0,0,1,6.871,26.1Z"/>
    </g>
  </g>
</svg>
