<svg xmlns="http://www.w3.org/2000/svg" xmlns:xlink="http://www.w3.org/1999/xlink" width="60" height="60" viewBox="0 0 60 60">
  <defs>
    <clipPath id="clip-Artboard_24">
      <rect width="60" height="60"/>
    </clipPath>
  </defs>
  <g id="Artboard_24" data-name="Artboard – 24" clip-path="url(#clip-Artboard_24)">
    <rect width="60" height="60" fill="#fff"/>
    <path id="Icon_ionic-ios-call" data-name="Icon ionic-ios-call" d="M43.9,36.275a34.085,34.085,0,0,0-7.12-4.764c-2.134-1.025-2.916-1-4.426.085-1.257.909-2.071,1.754-3.518,1.437s-4.3-2.472-7.067-5.229-4.923-5.62-5.229-7.067.539-2.261,1.437-3.518c1.088-1.511,1.12-2.292.085-4.426a33.411,33.411,0,0,0-4.764-7.12c-1.553-1.553-1.9-1.215-2.757-.909A15.69,15.69,0,0,0,8.012,6.1a7.616,7.616,0,0,0-3.032,3.2c-.6,1.3-1.3,3.719,2.25,10.036a56,56,0,0,0,9.846,13.131h0l.011.011.011.011h0a56.218,56.218,0,0,0,13.131,9.846c6.317,3.55,8.736,2.852,10.036,2.25a7.487,7.487,0,0,0,3.2-3.032,15.69,15.69,0,0,0,1.342-2.525C45.113,38.177,45.462,37.828,43.9,36.275Z" transform="translate(5.22 5.209)"/>
  </g>
</svg>
